<?xml version="1.0" standalone="no"?>
<!DOCTYPE svg PUBLIC "-//W3C//DTD SVG 20010904//EN"
 "http://www.w3.org/TR/2001/REC-SVG-20010904/DTD/svg10.dtd">
<svg version="1.0" xmlns="http://www.w3.org/2000/svg"
 width="1196.000000pt" height="1196.000000pt" viewBox="0 0 1196.000000 1196.000000"
 preserveAspectRatio="xMidYMid meet">
<metadata>
Created by potrace 1.14, written by Peter Selinger 2001-2017
</metadata>
<g transform="translate(0.000000,1196.000000) scale(0.100000,-0.100000)"
fill="#000000" stroke="none">
<path d="M8655 11942 c-172 -45 -296 -131 -401 -279 -40 -56 -91 -175 -99
-230 -4 -21 -9 -46 -11 -56 -9 -30 -5 -155 7 -221 35 -196 181 -403 342 -487
l67 -34 1 -3020 c0 -1661 1 -3065 1 -3120 0 -55 -3 -145 -7 -200 -4 -55 -7
-107 -7 -115 0 -48 -36 -287 -64 -415 -8 -38 -17 -81 -20 -95 -3 -14 -6 -29
-8 -35 -36 -133 -69 -239 -108 -345 -17 -47 -36 -98 -44 -115 -7 -16 -25 -59
-40 -95 -101 -245 -295 -565 -491 -811 -165 -205 -317 -357 -583 -583 -14 -11
-56 -44 -95 -72 -437 -321 -914 -537 -1430 -650 -157 -34 -151 -32 -199 -38
-22 -3 -52 -8 -65 -10 -13 -3 -49 -8 -80 -11 -31 -4 -69 -8 -86 -10 -107 -13
-340 -18 -835 -17 -311 0 -575 1 -587 1 -16 1 -25 11 -34 39 -21 62 -91 171
-150 231 -93 95 -184 147 -313 181 -89 24 -263 21 -346 -5 -238 -74 -409 -253
-470 -491 -24 -93 -21 -257 5 -344 71 -228 236 -393 467 -466 81 -25 264 -27
358 -3 151 39 327 142 423 249 l45 50 593 1 c327 0 626 5 664 9 228 27 256 31
367 51 438 78 910 238 1278 432 443 234 806 500 1135 832 271 274 455 510 672
860 103 167 292 557 328 675 4 14 13 39 20 55 44 99 161 510 179 625 3 19 12
69 20 110 8 41 17 99 21 129 4 30 8 61 10 70 1 9 6 48 10 88 4 40 9 85 13 100
3 15 7 1439 9 3163 3 2962 4 3136 21 3147 165 112 267 243 317 403 26 84 30
117 29 225 -1 207 -86 387 -246 515 -69 55 -137 91 -248 129 -63 22 -256 23
-335 3z"/>
<path d="M7280 10154 c-222 -38 -428 -236 -465 -446 -3 -17 -8 -34 -10 -38 -7
-12 -7 -141 0 -185 19 -119 76 -233 159 -319 58 -59 171 -136 201 -136 8 0 17
-5 21 -11 8 -13 8 -3995 0 -4117 -27 -408 -159 -809 -382 -1158 -161 -253
-344 -448 -624 -667 -51 -40 -201 -132 -300 -185 -264 -139 -591 -242 -855
-267 -38 -4 -81 -9 -95 -11 -54 -9 -825 -5 -828 4 -2 6 -20 37 -40 71 -87 143
-233 247 -389 277 -411 77 -769 -272 -698 -682 8 -42 21 -92 31 -113 9 -20 23
-49 30 -66 24 -51 101 -142 156 -184 190 -143 421 -164 637 -58 83 40 203 158
247 242 l32 60 383 1 c329 1 514 7 578 19 9 1 43 6 76 10 126 14 354 67 500
116 723 244 1319 754 1667 1429 30 58 67 134 82 170 15 36 31 74 36 85 70 152
160 514 185 735 15 140 17 415 19 2269 l1 2035 51 30 c71 43 126 90 160 137
16 22 34 46 40 52 17 20 52 99 73 165 15 50 19 86 16 165 -2 56 -5 109 -7 117
-3 8 -10 34 -17 58 -22 78 -83 175 -150 240 -141 135 -325 190 -521 156z"/>
<path d="M5965 8685 c-97 -23 -191 -87 -250 -170 -137 -192 -94 -461 96 -601
l50 -36 -4 -1282 c-1 -704 -6 -1291 -9 -1303 -4 -11 -10 -43 -13 -70 -11 -74
-78 -271 -125 -364 -164 -329 -446 -582 -791 -709 -44 -17 -90 -32 -102 -35
-211 -47 -210 -46 -489 -50 l-246 -3 -26 38 c-33 50 -100 104 -169 135 -321
147 -674 -135 -601 -482 31 -151 139 -270 291 -322 44 -15 79 -19 148 -18 80
3 98 7 166 40 69 33 121 76 176 145 18 22 21 23 288 27 278 4 291 5 435 32 92
17 147 32 255 70 39 14 79 28 90 31 51 15 241 116 335 180 270 180 482 419
628 707 87 170 133 308 175 515 20 103 21 132 24 1419 l4 1314 58 56 c102 98
142 195 137 336 -10 267 -269 462 -531 400z"/>
</g>
</svg>
